<svg width="18" height="18" viewBox="0 0 18 18" fill="none" xmlns="http://www.w3.org/2000/svg">
<path d="M9 0C7.21997 0 5.47991 0.527841 3.99987 1.51677C2.51983 2.50571 1.36628 3.91131 0.685088 5.55585C0.00389957 7.20038 -0.17433 9.00998 0.172936 10.7558C0.520203 12.5016 1.37737 14.1053 2.63604 15.364C3.89471 16.6226 5.49836 17.4798 7.24419 17.8271C8.99002 18.1743 10.7996 17.9961 12.4442 17.3149C14.0887 16.6337 15.4943 15.4802 16.4832 14.0001C17.4722 12.5201 18 10.78 18 9C18 7.8181 17.7672 6.64778 17.3149 5.55585C16.8626 4.46392 16.1997 3.47177 15.364 2.63604C14.5282 1.80031 13.5361 1.13738 12.4442 0.685084C11.3522 0.232792 10.1819 0 9 0ZM10.8 6.362H11.2312C11.3903 6.362 11.5429 6.42521 11.6555 6.53773C11.768 6.65026 11.8312 6.80287 11.8312 6.962C11.8312 7.12113 11.768 7.27374 11.6555 7.38626C11.5429 7.49878 11.3903 7.562 11.2312 7.562H10.9456C10.8776 8.26568 10.5501 8.91887 10.027 9.39443C9.50391 9.87 8.82257 10.1339 8.1156 10.1348H7.9248L10.208 12.542C10.2644 12.5987 10.3089 12.6661 10.3388 12.7403C10.3688 12.8144 10.3836 12.8938 10.3824 12.9738C10.3812 13.0538 10.3641 13.1327 10.332 13.2059C10.2998 13.2792 10.2534 13.3453 10.1954 13.4003C10.1374 13.4553 10.0689 13.4982 9.99407 13.5264C9.91924 13.5546 9.83952 13.5676 9.7596 13.5645C9.67969 13.5615 9.60118 13.5425 9.52871 13.5087C9.45624 13.4749 9.39127 13.4269 9.3376 13.3676L6.0936 9.9476C6.01291 9.86248 5.95893 9.75558 5.93834 9.64011C5.91776 9.52465 5.93146 9.40568 5.97777 9.29792C6.02407 9.19016 6.10094 9.09834 6.19888 9.0338C6.29681 8.96926 6.41152 8.93484 6.5288 8.9348H8.1156C8.50377 8.9339 8.87906 8.79552 9.1749 8.54421C9.47073 8.2929 9.66796 7.94491 9.7316 7.562H6.5556C6.39647 7.562 6.24386 7.49878 6.13134 7.38626C6.01882 7.27374 5.9556 7.12113 5.9556 6.962C5.9556 6.80287 6.01882 6.65026 6.13134 6.53773C6.24386 6.42521 6.39647 6.362 6.5556 6.362H9.4708C9.32022 6.14203 9.1183 5.96209 8.88251 5.83775C8.64672 5.7134 8.38417 5.64841 8.1176 5.6484H6.5308C6.37167 5.6484 6.21906 5.58518 6.10654 5.47266C5.99402 5.36014 5.9308 5.20753 5.9308 5.0484C5.9308 4.88927 5.99402 4.73666 6.10654 4.62413C6.21906 4.51161 6.37167 4.4484 6.5308 4.4484H8.1176C8.14 4.4484 8.1612 4.4512 8.1832 4.4516H11.2332C11.3923 4.4516 11.5449 4.51481 11.6575 4.62733C11.77 4.73986 11.8332 4.89247 11.8332 5.0516C11.8332 5.21073 11.77 5.36334 11.6575 5.47586C11.5449 5.58838 11.3923 5.6516 11.2332 5.6516H10.4364C10.5912 5.86997 10.7143 6.10914 10.802 6.362H10.8Z" fill="#919294"/>
</svg>
