<svg width="18" height="18" viewBox="0 0 18 18" fill="none" xmlns="http://www.w3.org/2000/svg">
<path d="M9 0C4.02926 0 0 4.02926 0 9C0 13.9707 4.02926 18 9 18C13.9704 18 18 13.9707 18 9C18 4.02926 13.9707 0 9 0ZM8.45719 7.59797C8.51062 7.7182 8.60414 7.82789 8.73703 7.92773C8.86992 8.02758 9.05309 8.12918 9.28582 8.23254C9.85465 8.48004 10.3257 8.72227 10.6991 8.95852C11.0721 9.19512 11.3502 9.46582 11.5334 9.77063C11.7162 10.0754 11.8076 10.4551 11.8076 10.9097C11.8076 11.5488 11.6044 12.0642 11.198 12.4559C10.7916 12.8475 10.2466 13.0785 9.56285 13.1488V14.2738H8.67059V13.1597C8.18648 13.1115 7.75406 12.9843 7.37367 12.7772C6.99293 12.5705 6.6948 12.2776 6.47859 11.8986C6.26238 11.52 6.15797 11.0496 6.16535 10.4882L6.1766 10.4604H8.0775C8.0775 10.7596 8.1218 11.0029 8.21039 11.1892C8.29898 11.3759 8.42098 11.5126 8.57602 11.5995C8.73105 11.6863 8.91035 11.7295 9.11355 11.7295C9.27984 11.7295 9.41836 11.6954 9.5291 11.6269C9.63984 11.5587 9.72316 11.4634 9.77836 11.3414C9.83391 11.2194 9.86133 11.0791 9.86133 10.9202C9.86133 10.7318 9.8325 10.5729 9.77555 10.4435C9.71824 10.3141 9.62402 10.1988 9.49289 10.0972C9.36176 9.99562 9.18141 9.89508 8.95254 9.79523C8.37598 9.56637 7.90242 9.33715 7.53082 9.10793C7.15957 8.87906 6.885 8.61117 6.70781 8.30426C6.53063 7.9977 6.44168 7.61344 6.44168 7.15148C6.44168 6.52359 6.65402 6.00715 7.07906 5.6025C7.50375 5.19785 8.07117 4.9623 8.78062 4.89586V3.72656H9.66727V4.92363C10.3324 5.02348 10.8598 5.29699 11.2496 5.74383C11.6395 6.19102 11.8287 6.76195 11.8178 7.45629L11.8343 7.50059H9.91125C9.91125 7.10543 9.83637 6.81258 9.68695 6.62203C9.53719 6.43184 9.34242 6.33656 9.1023 6.33656C8.86219 6.33656 8.67199 6.41426 8.55352 6.5693C8.43539 6.72434 8.37633 6.92578 8.37633 7.17328C8.37633 7.33605 8.40305 7.47738 8.45684 7.59727L8.45719 7.59797Z" fill="#919294"/>
</svg>
