<svg width="18" height="14" viewBox="0 0 18 14" fill="none" xmlns="http://www.w3.org/2000/svg">
<path d="M10.5043 8.76902C10.0565 9.06757 9.53631 9.22538 9 9.22538C8.46373 9.22538 7.94355 9.06757 7.49573 8.76902L0.119848 3.85161C0.0789258 3.82433 0.0390586 3.79589 0 3.76664V11.8243C0 12.7482 0.749707 13.4814 1.65702 13.4814H16.3429C17.2668 13.4814 18 12.7317 18 11.8243V3.7666C17.9608 3.79592 17.9209 3.82443 17.8799 3.85175L10.5043 8.76902Z" fill="#919294"/>
<path d="M0.704883 2.97394L8.08077 7.89138C8.35998 8.07754 8.67997 8.17059 8.99996 8.17059C9.31999 8.17059 9.64002 8.0775 9.91923 7.89138L17.2951 2.97394C17.7365 2.67986 18 2.18767 18 1.65646C18 0.743063 17.2569 0 16.3435 0H1.65646C0.743098 3.51563e-05 0 0.743098 0 1.65734C0 2.18767 0.263531 2.67986 0.704883 2.97394Z" fill="#919294"/>
</svg>
