<svg width="16" height="18" viewBox="0 0 16 18" fill="none" xmlns="http://www.w3.org/2000/svg">
<path d="M7.39502 8.67062C8.5862 8.67062 9.61767 8.24339 10.4605 7.40047C11.3032 6.55769 11.7305 5.52649 11.7305 4.33517C11.7305 3.14426 11.3032 2.11293 10.4603 1.26987C9.6174 0.427228 8.58606 0 7.39502 0C6.2037 0 5.1725 0.427228 4.32972 1.27001C3.48694 2.11279 3.05957 3.14413 3.05957 4.33517C3.05957 5.52649 3.48694 6.55783 4.32985 7.40061C5.17277 8.24325 6.20411 8.67062 7.39502 8.67062Z" fill="#919294"/>
<path d="M14.981 13.8407C14.9567 13.49 14.9075 13.1074 14.8351 12.7034C14.7621 12.2963 14.668 11.9115 14.5554 11.5598C14.4391 11.1963 14.2809 10.8373 14.0853 10.4933C13.8824 10.1363 13.644 9.82537 13.3764 9.56953C13.0967 9.30188 12.7542 9.08668 12.3582 8.92972C11.9635 8.77357 11.5261 8.69447 11.0582 8.69447C10.8745 8.69447 10.6968 8.76987 10.3536 8.9933C10.1424 9.13104 9.89531 9.29034 9.61956 9.46653C9.38376 9.61677 9.06434 9.75753 8.6698 9.88497C8.28486 10.0095 7.89403 10.0727 7.50827 10.0727C7.12252 10.0727 6.73182 10.0095 6.34648 9.88497C5.95235 9.75767 5.63292 9.61691 5.3974 9.46667C5.12426 9.29212 4.87707 9.13282 4.6627 8.99316C4.31993 8.76973 4.14209 8.69434 3.95834 8.69434C3.49033 8.69434 3.05308 8.77357 2.65853 8.92985C2.26275 9.08654 1.92012 9.30174 1.64011 9.56966C1.37273 9.82564 1.13419 10.1364 0.931496 10.4933C0.736078 10.8373 0.577876 11.1962 0.461422 11.56C0.348951 11.9117 0.254881 12.2963 0.181822 12.7034C0.10945 13.1068 0.060287 13.4896 0.03598 13.8411C0.0120849 14.1855 0 14.543 0 14.904C0 15.8436 0.298689 16.6043 0.887689 17.1653C1.46941 17.7188 2.23913 17.9997 3.17516 17.9997H11.8422C12.7782 17.9997 13.5477 17.719 14.1295 17.1653C14.7187 16.6047 15.0174 15.8439 15.0174 14.9039C15.0172 14.5412 15.005 14.1835 14.981 13.8407Z" fill="#919294"/>
</svg>
